<svg width="16" height="16" viewBox="0 0 16 16" fill="none" xmlns="http://www.w3.org/2000/svg">
<g clip-path="url(#clip0_0_999)">
<path d="M1.68999 1.99998C2.54441 1.19459 3.67542 0.747948 4.84958 0.752228C6.02375 0.756508 7.15147 1.21139 7.99999 2.02298C8.51048 1.5372 9.12611 1.17567 9.79904 0.966509C10.472 0.757345 11.1841 0.706178 11.88 0.816984H11.882C12.8087 0.968682 13.6672 1.39931 14.3429 2.05144C15.0186 2.70357 15.4795 3.54621 15.664 4.46698V4.46998C15.7972 5.14483 15.7754 5.8411 15.6003 6.50629C15.4251 7.17148 15.1012 7.78822 14.653 8.30999L9.34999 14.629C9.10041 14.9253 8.76026 15.1313 8.38201 15.2152C8.00376 15.299 7.60843 15.2561 7.25699 15.093C7.02398 14.9846 6.81748 14.8266 6.65199 14.63L1.34799 8.30898C0.584264 7.41457 0.193711 6.26072 0.257187 5.08631C0.320664 3.9119 0.833309 2.80687 1.68899 1.99998H1.68999ZM4.84799 2.25198C4.25755 2.24898 3.67866 2.41566 3.18021 2.73217C2.68176 3.04869 2.28472 3.50172 2.03632 4.03739C1.78793 4.57305 1.69863 5.1688 1.77906 5.75375C1.85948 6.3387 2.10625 6.88824 2.48999 7.33698L2.49499 7.34198L7.79999 13.664C7.83725 13.7078 7.88778 13.7382 7.94391 13.7507C8.00005 13.7631 8.05871 13.7569 8.11099 13.733C8.14567 13.7168 8.17639 13.6933 8.20099 13.664L13.513 7.33398C13.8138 6.98464 14.0314 6.5715 14.1492 6.12576C14.267 5.68003 14.282 5.21336 14.193 4.76098C14.0683 4.13991 13.7574 3.57154 13.3017 3.13154C12.846 2.69154 12.2671 2.40079 11.642 2.29798C11.1732 2.22344 10.6935 2.25831 10.2404 2.39986C9.78725 2.54141 9.373 2.78582 9.02999 3.11398L9.02299 3.12098C8.74523 3.37944 8.3799 3.52312 8.00049 3.52312C7.62108 3.52312 7.25575 3.37944 6.97799 3.12098L6.96899 3.11298C6.39874 2.56434 5.63931 2.25605 4.84799 2.25198Z" fill="#FF0000"/>
<path d="M4.84799 2.25198C4.25755 2.24898 3.67866 2.41566 3.18021 2.73217C2.68176 3.04869 2.28472 3.50172 2.03632 4.03739C1.78793 4.57305 1.69863 5.1688 1.77906 5.75375C1.85948 6.3387 2.10625 6.88824 2.48999 7.33698L2.49499 7.34198L7.79999 13.664C7.83725 13.7078 7.88778 13.7382 7.94391 13.7507C8.00005 13.7631 8.05871 13.7569 8.11099 13.733C8.14567 13.7168 8.17639 13.6933 8.20099 13.664L13.513 7.33398C13.8138 6.98464 14.0314 6.5715 14.1492 6.12576C14.267 5.68003 14.282 5.21336 14.193 4.76098C14.0683 4.13991 13.7574 3.57154 13.3017 3.13154C12.846 2.69154 12.2671 2.40079 11.642 2.29798C11.1732 2.22344 10.6935 2.25831 10.2404 2.39986C9.78725 2.54141 9.373 2.78582 9.02999 3.11398L9.02299 3.12098C8.74523 3.37944 8.3799 3.52312 8.00049 3.52312C7.62108 3.52312 7.25575 3.37944 6.97799 3.12098L6.96899 3.11298C6.39874 2.56434 5.63931 2.25605 4.84799 2.25198Z" fill="#FF0000"/>
</g>
<defs>
<clipPath id="clip0_0_999">
<rect width="16" height="16" fill="white"/>
</clipPath>
</defs>
</svg>
