<svg width="21" height="22" viewBox="0 0 21 22" fill="none" xmlns="http://www.w3.org/2000/svg">
<path d="M16.0881 15.5684L20.2696 19.9797C20.6711 20.4033 20.6582 21.0818 20.2408 21.489C19.8299 21.8898 19.1811 21.8768 18.7859 21.4596L14.6013 17.0434C13.1789 18.1372 11.5749 18.739 9.78941 18.849C8.59632 18.9225 7.44086 18.7568 6.32304 18.3519C5.20522 17.9471 4.23006 17.3699 3.39755 16.6205C2.56504 15.8711 1.88397 14.9572 1.35435 13.879C0.824717 12.8007 0.524441 11.6558 0.453518 10.4445C0.382594 9.23316 0.547199 8.05971 0.947332 6.92414C1.34746 5.78858 1.91706 4.79768 2.65612 3.95146C3.39518 3.10524 4.29603 2.41255 5.35867 1.8734C6.42131 1.33424 7.54915 1.02792 8.74218 0.954434C9.9352 0.880949 11.0907 1.04663 12.2085 1.45148C13.3264 1.85633 14.3016 2.43346 15.134 3.18289C15.9665 3.93231 16.6475 4.84617 17.1772 5.92446C17.7069 7.00276 18.0072 8.14758 18.0781 9.35892C18.1231 10.1275 18.0724 10.8852 17.9262 11.632C17.78 12.3788 17.5506 13.0805 17.2381 13.7369C16.9255 14.3934 16.5422 15.0039 16.0881 15.5684ZM9.66625 16.7437C10.5796 16.6874 11.4411 16.452 12.2509 16.0374C13.0606 15.6228 13.748 15.0921 14.3129 14.4452C14.8779 13.7984 15.3146 13.0421 15.6232 12.1763C15.9317 11.3104 16.0589 10.4139 16.0046 9.48658C15.9504 8.55929 15.7196 7.68477 15.3122 6.86305C14.9049 6.04132 14.3831 5.34402 13.7468 4.77115C13.1105 4.19828 12.3662 3.75575 11.5138 3.44356C10.6615 3.13136 9.77873 3.00339 8.86543 3.05964C7.95212 3.1159 7.09058 3.35131 6.2808 3.76588C5.47103 4.18046 4.78365 4.71119 4.21868 5.35808C3.65372 6.00498 3.21697 6.7613 2.90844 7.62706C2.59992 8.49281 2.47279 9.38937 2.52706 10.3167C2.58133 11.2441 2.81211 12.1186 3.21938 12.9403C3.62666 13.7619 4.1485 14.4592 4.78488 15.0321C5.42127 15.605 6.16558 16.0475 7.01783 16.3597C7.87007 16.6719 8.75288 16.7999 9.66625 16.7437Z" fill="white"/>
</svg>
