<svg width="15" height="14" viewBox="0 0 15 14" fill="none" xmlns="http://www.w3.org/2000/svg">
<path fill-rule="evenodd" clip-rule="evenodd" d="M0 8.58779V4.58779C0 4.0355 0.447715 3.58779 1 3.58779H3.58579C3.851 3.58779 4.10536 3.48243 4.29289 3.2949L7.29289 0.294898C7.92286 -0.335066 9 0.111099 9 1.002V12.1736C9 13.0645 7.92286 13.5106 7.29289 12.8807L4.29289 9.88068C4.10536 9.69315 3.851 9.58779 3.58579 9.58779H1C0.447715 9.58779 0 9.14007 0 8.58779ZM11.0357 3.64597C10.6131 3.07395 10.7284 2.15881 11.3846 1.88459C11.7263 1.7418 12.1246 1.81623 12.3635 2.09923C13.3986 3.32579 14.0186 4.8874 14.0186 6.5878C14.0186 8.35337 13.3502 9.96932 12.2426 11.2159C12.0001 11.4889 11.6066 11.555 11.2715 11.41C10.6154 11.126 10.5168 10.1988 10.9561 9.63461C11.6279 8.77168 12.0186 7.71111 12.0186 6.5878C12.0186 5.50962 11.6587 4.48926 11.0357 3.64597Z" fill="white" fill-opacity="0.5"/>
</svg>
