<svg width="20" height="21" viewBox="0 0 20 21" fill="none" xmlns="http://www.w3.org/2000/svg">
<path d="M10.5 2.13392C10.348 2.04616 10.1755 1.99995 10 1.99995C9.82446 1.99995 9.65202 2.04616 9.5 2.13392L2 6.46392V18.8869H6.5V12.8869C6.5 12.6217 6.60536 12.3674 6.79289 12.1798C6.98043 11.9923 7.23478 11.8869 7.5 11.8869H12.5C12.7652 11.8869 13.0196 11.9923 13.2071 12.1798C13.3946 12.3674 13.5 12.6217 13.5 12.8869V18.8869H18V6.46392L10.5 2.13392ZM8.5 0.401924C8.95606 0.138619 9.47339 0 10 0C10.5266 0 11.0439 0.138619 11.5 0.401924L19 4.73192C19.304 4.90746 19.5565 5.15992 19.732 5.46395C19.9076 5.76798 20 6.11286 20 6.46392V19.8869C20 20.1521 19.8946 20.4065 19.7071 20.594C19.5196 20.7816 19.2652 20.8869 19 20.8869H12.5C12.2348 20.8869 11.9804 20.7816 11.7929 20.594C11.6054 20.4065 11.5 20.1521 11.5 19.8869V13.8869H8.5V19.8869C8.5 20.1521 8.39464 20.4065 8.20711 20.594C8.01957 20.7816 7.76522 20.8869 7.5 20.8869H1C0.734784 20.8869 0.48043 20.7816 0.292893 20.594C0.105357 20.4065 0 20.1521 0 19.8869V6.46392C8.91844e-06 6.11286 0.0924258 5.76798 0.267962 5.46395C0.443498 5.15992 0.695969 4.90746 1 4.73192L8.5 0.401924Z" fill="#B3B3B3"/>
</svg>
