<svg width="24" height="25" viewBox="0 0 24 25" fill="none" xmlns="http://www.w3.org/2000/svg">
<path d="M3 23C2.73478 23 2.48043 22.8946 2.29289 22.7071C2.10536 22.5196 2 22.2652 2 22V4C2 3.73478 2.10536 3.48043 2.29289 3.29289C2.48043 3.10536 2.73478 3 3 3C3.26522 3 3.51957 3.10536 3.70711 3.29289C3.89464 3.48043 4 3.73478 4 4V22C4 22.2652 3.89464 22.5196 3.70711 22.7071C3.51957 22.8946 3.26522 23 3 23ZM15.5 3.134C15.348 3.04623 15.1755 3.00003 15 3.00003C14.8245 3.00002 14.652 3.04623 14.5 3.13399C14.348 3.22176 14.2218 3.34799 14.134 3.50001C14.0462 3.65202 14 3.82447 14 4V22C14 22.2652 14.1054 22.5196 14.2929 22.7071C14.4804 22.8946 14.7348 23 15 23H21C21.2652 23 21.5196 22.8946 21.7071 22.7071C21.8946 22.5196 22 22.2652 22 22V7.464C22 7.28847 21.9538 7.11603 21.866 6.96401C21.7782 6.812 21.652 6.68577 21.5 6.598L15.5 3.134ZM9 3C8.73478 3 8.48043 3.10536 8.29289 3.29289C8.10536 3.48043 8 3.73478 8 4V22C8 22.2652 8.10536 22.5196 8.29289 22.7071C8.48043 22.8946 8.73478 23 9 23C9.26522 23 9.51957 22.8946 9.70711 22.7071C9.89464 22.5196 10 22.2652 10 22V4C10 3.73478 9.89464 3.48043 9.70711 3.29289C9.51957 3.10536 9.26522 3 9 3Z" fill="#B3B3B3"/>
</svg>
