<svg width="24" height="24" viewBox="0 0 24 24" fill="none" xmlns="http://www.w3.org/2000/svg">
<g opacity="0.7">
<rect width="24" height="24" rx="2" fill="url(#paint0_linear_0_1399)"/>
<g clip-path="url(#clip0_0_1399)">
<path d="M17.793 9.16503C17.6634 8.52048 17.3404 7.93074 16.8672 7.47437C16.3939 7.018 15.7929 6.71667 15.144 6.61053C14.6565 6.53282 14.1577 6.56888 13.6864 6.7159C13.2152 6.86292 12.7843 7.11691 12.4275 7.45803C12.3114 7.56604 12.1586 7.62609 12 7.62609C11.8414 7.62609 11.6887 7.56604 11.5725 7.45803C10.9801 6.88501 10.1896 6.56233 9.36544 6.55707C8.54125 6.55181 7.74673 6.86437 7.14704 7.42978C6.54735 7.99519 6.18861 8.76996 6.1454 9.59304C6.10219 10.4161 6.37783 11.2242 6.91503 11.8493L11.352 17.1368C11.4314 17.2313 11.5306 17.3072 11.6424 17.3593C11.7543 17.4114 11.8762 17.4384 11.9997 17.4384C12.1231 17.4384 12.245 17.4114 12.3569 17.3593C12.4687 17.3072 12.5679 17.2313 12.6473 17.1368L17.0843 11.8493C17.398 11.4851 17.6249 11.0543 17.7477 10.5895C17.8705 10.1248 17.886 9.63817 17.793 9.16653V9.16503Z" fill="white"/>
</g>
</g>
<defs>
<linearGradient id="paint0_linear_0_1399" x1="0" y1="0" x2="24" y2="24" gradientUnits="userSpaceOnUse">
<stop stop-color="#450AF5"/>
<stop offset="1" stop-color="#C4EFD9"/>
</linearGradient>
<clipPath id="clip0_0_1399">
<rect width="12" height="12" fill="white" transform="translate(6 6)"/>
</clipPath>
</defs>
</svg>
