<svg width="22" height="23" viewBox="0 0 22 23" fill="none" xmlns="http://www.w3.org/2000/svg">
<path d="M9.53298 0.872704C4.35298 0.872704 0.125977 5.0127 0.125977 10.1517C0.125977 15.2907 4.35198 19.4307 9.53298 19.4307C11.767 19.4307 13.823 18.6607 15.44 17.3727L19.793 21.7257C19.8852 21.8212 19.9956 21.8974 20.1176 21.9498C20.2396 22.0022 20.3708 22.0298 20.5036 22.031C20.6364 22.0321 20.768 22.0068 20.8909 21.9565C21.0138 21.9062 21.1255 21.832 21.2194 21.7381C21.3133 21.6442 21.3875 21.5326 21.4378 21.4097C21.4881 21.2868 21.5134 21.1551 21.5122 21.0223C21.5111 20.8895 21.4835 20.7583 21.4311 20.6363C21.3787 20.5143 21.3025 20.404 21.207 20.3117L16.863 15.9677C18.2079 14.328 18.942 12.2724 18.94 10.1517C18.94 5.0117 14.714 0.871704 9.53298 0.871704V0.872704ZM2.12598 10.1517C2.12598 6.1457 5.42798 2.8717 9.53298 2.8717C13.638 2.8717 16.94 6.1457 16.94 10.1517C16.94 14.1577 13.638 17.4307 9.53298 17.4307C5.42798 17.4307 2.12598 14.1587 2.12598 10.1517Z" fill="white" fill-opacity="0.7"/>
</svg>
