<svg width="24" height="25" viewBox="0 0 24 25" fill="none" xmlns="http://www.w3.org/2000/svg">
<path d="M15.356 10.6517C15.356 13.2747 13.196 15.4017 10.533 15.4017C7.86898 15.4017 5.70898 13.2747 5.70898 10.6517C5.70898 8.02873 7.86898 5.90173 10.533 5.90173C13.197 5.90173 15.356 8.02873 15.356 10.6517Z" fill="white"/>
<path d="M1 10.28C1 5.14 5.226 1 10.407 1C15.587 1 19.814 5.14 19.814 10.28C19.816 12.4007 19.0819 14.4563 17.737 16.096L22.081 20.44C22.2632 20.6286 22.364 20.8812 22.3617 21.1434C22.3594 21.4056 22.2542 21.6564 22.0688 21.8418C21.8834 22.0272 21.6326 22.1324 21.3704 22.1347C21.1082 22.137 20.8556 22.0362 20.667 21.854L16.314 17.501C14.6356 18.8374 12.5525 19.5631 10.407 19.559C5.227 19.559 1 15.42 1 10.28ZM10.407 3C6.302 3 3 6.274 3 10.28C3 14.286 6.302 17.559 10.407 17.559C14.512 17.559 17.814 14.286 17.814 10.279C17.814 6.274 14.512 3 10.407 3Z" fill="white"/>
</svg>
